<svg width="16" height="16" viewBox="0 0 16 16" fill="none" xmlns="http://www.w3.org/2000/svg">
<rect width="16" height="16" rx="8" fill="#FF9500"/>
<path d="M15.8807 6.58841C15.8807 6.56305 15.8807 6.53768 15.8807 6.51231C15.6017 4.96485 14.8662 3.4935 13.6742 2.32656C12.4822 1.13426 11.0112 0.398583 9.46418 0.119534C9.43882 0.119534 9.41346 0.119534 9.3881 0.119534C6.90266 -0.311725 4.2397 0.423952 2.33758 2.32656C0.410101 4.25454 -0.325383 6.9182 0.131125 9.42965C0.131125 9.42965 0.131125 9.42965 0.131125 9.45502C0.410102 11.0025 1.14559 12.4738 2.33758 13.6661C3.91 15.239 5.93892 16 7.99321 16C10.0475 16 12.1018 15.2136 13.6488 13.6661C15.5763 11.7381 16.3118 9.07449 15.8807 6.58841ZM9.5149 0.626897C10.8337 0.905947 12.0764 1.51478 13.1162 2.50414L10.1997 5.42148C9.03303 4.10233 8.77942 2.22509 9.5149 0.626897ZM13.4713 2.83393C14.4604 3.87402 15.0691 5.11706 15.3481 6.4362C13.7503 7.19725 11.8735 6.9182 10.5547 5.75126L13.4713 2.83393ZM9.03303 0.550792C8.24683 2.3012 8.57653 4.33065 9.89533 5.77663L8.01857 7.65388L2.84481 2.50414C4.29042 1.15963 6.14182 0.474688 7.99321 0.474688C8.34827 0.474688 8.67797 0.500056 9.03303 0.550792ZM2.51511 2.83393L7.66351 7.98366L5.73603 9.91164C4.31578 8.61787 2.31222 8.28808 0.587632 9.02376C0.23257 6.86746 0.891972 4.55896 2.51511 2.83393ZM6.44616 15.3404C5.15272 15.0614 3.91 14.4525 2.87017 13.4632L5.73603 10.5966C6.8773 11.9157 7.15628 13.7422 6.44616 15.3404ZM0.638356 9.53112C2.21077 8.79544 4.03681 9.07449 5.35561 10.2668L2.51511 13.1334C1.52601 12.0933 0.917333 10.8503 0.638356 9.53112ZM6.92802 15.4165C7.66351 13.6661 7.33381 11.662 6.04037 10.2668L7.96785 8.33882L13.1162 13.4886C11.417 15.0867 9.10912 15.7463 6.92802 15.4165ZM13.4713 13.1334L8.32291 7.98366L10.1997 6.10642C11.1127 6.94357 12.2793 7.37483 13.4459 7.37483C14.1053 7.37483 14.7648 7.24799 15.3988 6.96894C15.7285 9.12523 15.0944 11.4084 13.4713 13.1334Z" fill="#231F20"/>
</svg>
